<?xml version="1.0" encoding="UTF-8"?>
<svg width="1200pt" height="1200pt" version="1.1" viewBox="0 0 1200 1200" xmlns="http://www.w3.org/2000/svg">
 <path d="m806.4 433.2c16.801-3.6016 31.199-18 30-34.801 0-21.602-20.398-37.199-40.801-33.602l-153.6 28.801c-34.801 6-69.602 9.6016-104.4 9.6016-34.801 0-69.602-3.6016-104.4-9.6016l-151.2-27.602c-16.801-3.6016-34.801 6-40.801 21.602-7.1992 20.398 6 42 26.398 46.801l183.6 33.602 2.3984 93.602c1.1992 60-4.8008 121.2-19.199 180l-46.797 182.4c-4.8008 19.199 3.6016 39.602 21.602 46.801 22.801 9.6016 46.801-3.6016 52.801-26.398l65.996-266.4c2.3984-9.6016 15.602-9.6016 18 0l67.199 266.4c4.8008 18 20.398 28.801 37.199 28.801 6 0 12-1.1992 18-4.8008 16.801-8.3984 24-27.602 19.199-45.602l-45.602-183.6c-14.398-58.801-21.602-118.8-19.199-180l2.3984-93.602z"/>
 <path d="m615.6 303.6c0 43.078-34.922 78-78 78-43.078 0-78-34.922-78-78 0-43.078 34.922-78 78-78 43.078 0 78 34.922 78 78z"/>
 <path d="m537.6 1053.6c-250.8 0-453.6-204-453.6-453.6 0-250.8 204-453.6 453.6-453.6 213.6 0 392.4 147.6 440.4 345.6 19.199 0 38.398 2.3984 56.398 7.1992-46.801-231.6-252-406.8-498-406.8-278.4 0-506.4 228-506.4 507.6s228 507.6 507.6 507.6c132 0 253.2-50.398 343.2-134.4-18-7.1992-34.801-15.602-50.398-26.398-79.203 65.996-181.2 106.8-292.8 106.8z"/>
 <path d="m973.2 546c-109.2 0-196.8 87.602-196.8 196.8 0 108 87.602 195.6 196.8 195.6s196.8-87.602 196.8-196.8c-1.1992-108-88.801-195.6-196.8-195.6zm92.402 169.2-102 102c-6 6-12 8.3984-20.398 8.3984-7.1992 0-14.398-2.3984-20.398-8.3984l-51.602-51.602c-10.801-10.801-10.801-28.801 0-39.602 10.801-10.801 28.801-10.801 39.602 0l31.199 31.199 82.801-82.801c10.801-10.801 28.801-10.801 39.602 0 10.793 13.207 10.793 31.207 1.1953 40.805z"/>
</svg>
